<svg
  width="400"
  height="400"
  viewBox="0 0 400 400"
  xmlns="http://www.w3.org/2000/svg"
>
  <!-- big left patch (cat pov) -->
  <path
    fill="#cc27da"
    d="m 196.16172,117.18845 c 0.626,0.078 1.736,0.079 2.467,0.003 0.731,-0.076 0.219,-0.14 -1.138,-0.141 -1.356,-0.002 -1.955,0.06 -1.329,0.138 z m 131.46868,-0.49723 c -5.163,0.734 -11.47155,2.4872 -22.93255,5.5992 -10.927,2.967 -16.5201,4.34339 -22.2361,4.96839 l -3.815,0.417 -10.925,-2.027 c -27.556,-5.112 -52.511,-8.69721 -53.272,-7.93621 -0.88,0.88 -1.821,31.189 -1.205,38.828 2.016,25.007 14.22297,48.60885 35.80997,68.11485 26.192,23.668 51.101,28.948 122.584,25.984 l 5.28964,-0.22432 0.49892,-6.61349 c 1.1391,-26.76013 -3.76748,-44.41382 -16.92148,-62.39782 -3.49726,-6.57888 -8.2984,-11.59101 -9.6364,-14.24201 -1.58218,-3.21702 -0.73855,-5.00591 1.94135,-20.86244 2.425,-12.348 2.69927,-23.56051 0.71527,-25.12651 -4.58056,-4.2646 -16.0312,-6.83292 -25.89562,-4.48164 z m -211.19668,12.22523 c -0.444,0.191 -0.509,0.303 -0.176,0.303 0.291,0 0.846,-0.136 1.233,-0.303 0.445,-0.191 0.51,-0.303 0.177,-0.303 -0.291,0 -0.846,0.137 -1.234,0.303 z m -30.131598,11.807 c -0.485,0.277 -0.722,0.503 -0.529,0.503 0.194,0 0.749,-0.226 1.234,-0.503 0.484,-0.277 0.722,-0.504 0.529,-0.504 -0.194,0 -0.749,0.227 -1.234,0.504 z m -33.321,22.114 -1.393,1.498 1.498,-1.393 c 1.393,-1.296 1.66,-1.603 1.393,-1.603 -0.057,0 -0.731,0.674 -1.498,1.498 z m -4.587,4.582 -1.035,1.145 1.146,-1.035 c 1.067,-0.965 1.307,-1.256 1.035,-1.256 -0.061,0 -0.576,0.516 -1.146,1.146 z M 270.54075,181.7446 c 11.33781,2.53779 18.28278,13.29487 14.59778,25.24887 -2.28376,4.29017 -10.31881,9.72455 -17.16481,9.77455 -12.65983,-0.42436 -22.37659,-11.21832 -20.50259,-23.41732 1.5,-9.767 8.32939,-12.82498 23.06962,-11.6061 z m -102.91703,22.49285 c 0.63,0.079 1.66,0.079 2.29,0 0.63,-0.078 0.115,-0.142 -1.145,-0.142 -1.26,0 -1.775,0.064 -1.145,0.142 z m 10.572,0.005 c 1.018,0.071 2.683,0.071 3.701,0 1.017,-0.071 0.185,-0.129 -1.85,-0.129 -2.036,0 -2.868,0.058 -1.851,0.129 z m -15.683,0.336 c 0.34,0.088 0.895,0.088 1.234,0 0.339,-0.089 0.062,-0.161 -0.617,-0.161 -0.678,0 -0.956,0.072 -0.617,0.161 z m 25.727,0.009 c 0.533,0.081 1.406,0.081 1.939,0 0.533,-0.08 0.097,-0.147 -0.969,-0.147 -1.067,0 -1.503,0.067 -0.97,0.147 z m 41.41,18.323 c 0.436,0.084 1.15,0.084 1.586,0 0.436,-0.084 0.079,-0.153 -0.793,-0.153 -0.872,0 -1.229,0.069 -0.793,0.153 z m 6.192,5.39 c 0,1.26 0.064,1.775 0.142,1.145 0.078,-0.63 0.078,-1.661 0,-2.291 -0.078,-0.63 -0.142,-0.114 -0.142,1.146 z m -86.897,4.836 c 0.63,0.078 1.661,0.078 2.291,0 0.63,-0.078 0.114,-0.142 -1.145,-0.142 -1.26,0 -1.776,0.064 -1.146,0.142 z m 54.45,0.002 c 0.726,0.076 1.916,0.076 2.643,0 0.727,-0.076 0.132,-0.138 -1.322,-0.138 -1.454,0 -2.048,0.062 -1.321,0.138 z m 26.15,9.699 -1.393,1.498 1.498,-1.393 c 1.393,-1.296 1.66,-1.603 1.393,-1.603 -0.057,0 -0.731,0.674 -1.498,1.498 z m -81.651,8.626 c 0.634,0.078 1.585,0.076 2.115,-0.004 0.529,-0.08 0.011,-0.145 -1.152,-0.143 -1.163,0.002 -1.596,0.068 -0.963,0.147 z m 55.677,0.351 c 0.63,0.079 1.661,0.079 2.291,0 0.629,-0.078 0.114,-0.142 -1.146,-0.142 -1.26,0 -1.775,0.064 -1.145,0.142 z m 108.898,40.17 c 0.437,0.084 1.15,0.084 1.586,0 0.436,-0.084 0.08,-0.152 -0.793,-0.152 -0.872,0 -1.229,0.068 -0.793,0.152 z m -219.558598,0.359 c 0.63,0.078 1.661,0.078 2.291,0 0.63,-0.078 0.114,-0.142 -1.146,-0.142 -1.26,0 -1.775,0.064 -1.145,0.142 z m 201.585598,-0.006 c 0.436,0.084 1.15,0.084 1.586,0 0.436,-0.084 0.079,-0.153 -0.793,-0.153 -0.872,0 -1.229,0.069 -0.793,0.153 z m -146.784,0.365 c 1.308,0.068 3.449,0.068 4.757,0 1.309,-0.068 0.238,-0.123 -2.378,-0.123 -2.617,0 -3.688,0.055 -2.379,0.123 z m 120,-0.006 c 0.63,0.078 1.661,0.078 2.29,0 0.63,-0.079 0.115,-0.143 -1.145,-0.143 -1.26,0 -1.775,0.064 -1.145,0.143 z"
  />
  <!-- border/outline -->
  <path
    fill="#0e0e08"
    d="m 77.8852,98.8309 c -16.284,2.9291 -22.027,9.8951 -26.603,32.2701 -0.892,4.362 -2.014,9.233 -2.495,10.826 l -0.873,2.896 -6.819,7.148 c -13.877,14.546 -17.746,19.789 -24.317,32.956 -9.609,19.252 -12.646,43.552 -8.495,67.966 3.743,22.017 8.238,32.872 17.436,42.107 l 3.356,3.369 2.995,0.776 c 8.308,2.15 14.892,3.313 25.375,4.481 9.25,1.031 42.6238,1.337 146.2548,1.342 118.042,0.006 128.88,-0.146 145.486,-2.043 6.069,-0.693 13.365,-1.398 16.211,-1.566 7.425,-0.439 8.683,-1.194 13.337,-8.001 10.608,-15.514 18.268,-43.998 16.387,-60.935 -2.946,-26.529 -9.654,-44.62 -23.655,-63.799 -2.527,-3.461 -4.594,-6.54 -4.594,-6.842 10e-4,-0.301 0.468,-3.094 1.039,-6.206 5.533,-30.148 3.259,-41.694 -9.708,-49.285 -13.082,-7.6581 -31.531,-7.4281 -59.701,0.744 -18.278,5.303 -19.417,5.348 -37.004,1.45 -19.724,-4.372 -23.871,-5.133 -34.009,-6.248 -22.373,-2.4591 -42.01,-2.205 -65.727,0.853 -14.986,1.931 -19.474,2.3 -28.069,2.304 -9.976,0.005 -10.982,-0.152 -26.204,-4.11 C 97.3492,98.6469 84.7222,97.6009 77.8852,98.8309 Z M 211.454,117.377 c 15.104,1.335 27.071,3.161 56.564,8.633 l 10.925,2.027 3.815,-0.417 c 5.716,-0.625 11.337,-1.838 22.264,-4.805 27.212,-7.39 39.912,-7.644 48.371,-0.97 1.984,1.566 1.641,12.397 -0.784,24.745 -3.29,16.756 -3.342,17.343 -1.797,20.403 1.338,2.651 4.945,8.085 9.503,14.316 11.299,15.448 15.52,27.678 16.791,48.647 1.527,25.195 -3.071,44.583 -13.311,56.122 -1.958,2.207 -6.599,2.955 -22.473,3.623 -5.04,0.212 -11.146,0.624 -13.569,0.916 -2.423,0.293 -6.942,0.672 -10.044,0.843 -26.132,1.444 -221.6198,1.324 -237.8848,-0.147 -16.586,-1.499 -22.742,-1.967 -28.546,-2.172 -10.292,-0.363 -10.971,-0.752 -16.371,-9.383 -10.257,-16.395 -14.476,-37.453 -12.06,-60.199 2.137,-20.123 14.005,-41.774 31.983,-58.349 12.811,-11.811 31.425,-21.947 55.8308,-30.402 12.183,-4.221 11.33,-4.011 31.718,-7.817 29.246,-5.461 50.897,-7.22 69.075,-5.614 z M 97.8302,176.958 c -8.265,1.938 -17.061,10.356 -18.547,17.748 -1.26,6.268 2.358,14.186 7.237,15.837 11.981,4.053 26.5988,-6.68 26.5988,-19.53 0,-9.281 -7.246,-15.942 -15.2888,-14.055 z m 159.5608,5.239 c -6.175,1.619 -9.025,4.82 -10.012,11.243 -2.222,14.466 12.705,27.105 26.529,22.464 10.099,-3.39 14.351,-10.448 12.281,-20.387 -2.245,-10.78 -15.354,-16.844 -28.798,-13.32 z m -90.166,21.42453 c -8.606,0.537 -11.29659,1.15074 -12.46059,2.47574 -1.37877,0.97923 -3.68858,5.60258 -4.33958,7.43458 l -0.54804,1.04351 1.84421,1.67664 c 0.774,0.658 3.83501,3.28313 6.98501,5.74713 3.149,2.465 5.10852,4.57637 5.10852,4.70337 0,1.004 -6.48025,4.52845 -9.61625,5.26545 -5.779,1.36 -7.64926,0.86207 -20.68026,-8.97493 -2.84352,-1.99836 -5.7526,-4.23028 -5.9666,-4.14028 -0.427,0.182 -5.8623,6.09427 -7.2403,8.03027 l -0.57312,1.05358 0.63057,3.14886 c 3.228,12.619 13.86994,20.00551 29.22494,19.98151 6.11,-0.01 6.82378,-0.33086 19.32678,-3.99086 2.229,-0.653 5.21562,-1.35468 6.57162,-1.59268 l 2.13837,-0.49372 7.0091,2.23727 c 12.702,3.998 12.945,4.14461 20.984,4.14261 18.619,-0.005 31.3644,-10.0272 30.8414,-24.2692 -0.148,-4.035 -0.59266,-4.42755 -4.27166,-4.61755 -5.6,-0.289 -8.6072,0.86102 -16.2032,5.60102 -7.677,4.791 -6.86999,4.41043 -11.12299,4.38443 -2.036,-0.012 -4.63644,-0.26216 -5.70244,-0.49316 -2.507,-0.544 -9.98332,-2.83892 -10.34732,-3.16292 -0.154,-0.137 1.63817,-1.27023 4.16317,-3.06623 6.453,-4.59 13.59866,-12.29797 12.58366,-13.25997 -1.888,-1.79 -7.53261,-6.13685 -9.24761,-6.97385 -2.44087,-1.99715 -18.11339,-2.57462 -29.09139,-1.89062 z"
  />
  <!-- rest of face -->
  <path
    fill="#54c4fc"
    d="m 186.32276,116.92487 c -0.678,0.065 -4.77208,0.39186 -7.29208,0.60286 -9.687,0.814 -21.74525,2.44139 -35.76925,5.01439 -18.04348,3.73349 -19.32818,3.6152 -30.13375,7.40561 -42.32406,13.63317 -66.66754,33.30912 -81.116862,60.71402 -7.322545,14.30017 -9.946622,24.48412 -9.904622,42.05012 0.046,19.116 3.895194,32.76624 12.918194,47.27724 5.091,8.188 6.050934,8.85125 15.91379,9.15519 4.071,0.162 12.775322,0.75674 19.385805,1.25592 10.098277,1.57733 24.62193,2.00375 122.636835,2.06575 94.898,0.059 124.18035,-0.34208 131.66235,-1.46508 3.11745,-0.24522 7.46329,-0.76108 22.29529,-1.54408 6.94738,-0.11558 13.57054,-1.30581 15.00454,-1.99281 3.65087,-1.46195 9.76518,-11.98682 12.199,-21.492 1.36054,-4.10287 3.12303,-15.22977 2.75703,-15.59477 -0.099,-0.099 -5.55103,0.0427 -12.32203,0.27377 -69.774,2.387 -95.783,-4.691 -122.132,-33.234 -25.138,-27.232 -31.82832,-48.64827 -28.51732,-92.48527 0.299,-3.956 0.56005,-7.39933 0.48205,-7.47833 -4.81715,-0.89983 -22.85231,-1.16224 -28.06697,-0.52853 z m -81.72151,60.5692 c 16.016,7.12 6.88418,32.37369 -11.58815,33.87393 -8.545,0.392 -13.454258,-4.94762 -13.454258,-13.61262 0,-11.857 15.320259,-24.04066 25.042408,-20.26131 z m 83.00843,26.34566 c 6.994,0.39 8.53932,1.12027 14.20832,5.55927 4.538,3.554 4.313,3.066 2.531,5.484 -3.106,4.215 -6.928,7.686 -12.909,11.725 -3.502,2.365 -3.495,2.212 -0.162,3.306 5.98,1.963 7.993,2.38 12.486,2.583 5.162,0.233 4.919,0.317 11.807,-4.069 7.851,-4.999 11.922,-6.375 17.242,-5.83 2.87,0.294 3.193,0.618 3.503,3.517 1.504,14.036 -12.097,25.234 -30.677,25.256 -6.762,0.009 -8.715,-0.373 -20.144,-3.94 l -7.805,-2.436 -3.294,0.649 c -1.812,0.357 -5.911,1.436 -9.11,2.396 -8.115,2.438 -11.07,2.997 -15.859,2.998 -15.18,0.005 -26.601,-8.198 -29.237,-21.001 l -0.419,-2.034 1.85,-2.371 c 2.558,-3.278 5.635,-6.777 5.96,-6.777 0.149,0 3.177,2.166 6.729,4.814 3.552,2.647 7.869,5.74 9.593,6.872 l 3.134,2.058 3.046,-0.004 c 4.735,-0.007 7.497,-0.958 11.962,-4.123 2.786,-1.974 3.043,-1.519 -4.01,-7.067 -3.28,-2.581 -6.57832,-5.33527 -7.11432,-5.86627 l -0.973,-0.967 1.366,-2.808 c 3.425,-7.048 3.315,-6.987 14.501,-8.042 2.732,-0.258 16.389,-0.184 21.795,0.118 z"
  />
</svg>